# xmcd
# 
# Track frame offsets:
#     150
#     11981
#     27382
#     38173
#     50472
#     62335
#     73205
#     86532
#     95969
#     107891
#     121633
#     131883
#     147209
#     160772
#     170381
#     183802
#     196002
#     209022
# 
# Disc length: 3001
# 
# Revision: 3
# Processed by: cddbd v1.5.2PL0 Copyright (c) Steve Scherf et al.
# Submitted via: fre:ac v1.0.17
# 
DISCID=000bb712
DTITLE=Cale, J.J. - Gold (1v2)
DYEAR=2007
DGENRE=Rock
TTITLE0=Call Me The Breeze
TTITLE1=Magnolia
TTITLE2=After Midnight
TTITLE3=River Runs Deep
TTITLE4=Woman I Love
TTITLE5=Crazy Mama
TTITLE6=Lies
TTITLE7=If You're Ever In Oklahoma
TTITLE8=Ridin Home
TTITLE9=Going Down
TTITLE10=Cajun Moon
TTITLE11=Any Way The Wind Blows
TTITLE12=I Got The Same Old Blues
TTITLE13=Rock And Roll Records
TTITLE14=Let Me Do It To You
TTITLE15=Super Blue
TTITLE16=Cocaine
TTITLE17=Ride Me High
EXTD=YEAR: 2007
EXTT0=
EXTT1=
EXTT2=
EXTT3=
EXTT4=
EXTT5=
EXTT6=
EXTT7=
EXTT8=
EXTT9=
EXTT10=
EXTT11=
EXTT12=
EXTT13=
EXTT14=
EXTT15=
EXTT16=
EXTT17=
PLAYORDER=
